<?xml version="1.0" encoding="utf-8"?>
<!-- Generator: Adobe Illustrator 22.0.1, SVG Export Plug-In . SVG Version: 6.00 Build 0)  -->
<svg version="1.1" xmlns="http://www.w3.org/2000/svg" xmlns:xlink="http://www.w3.org/1999/xlink" x="0px" y="0px"
	 viewBox="0 0 280 304.5" style="enable-background:new 0 0 280 304.5;" xml:space="preserve">
<style type="text/css">
	.st0{fill:#72665C;}
	.st1{fill:#93CB74;}
	.st2{fill:#D4E8BC;}
</style>
<g id="stem">
	<path class="st0" d="M128.8,66.4c0,0,25.8-16.4,0-48.4l11.5-8c0,0,29.1,23.2,10.9,58.6C151.2,68.6,143.7,91.8,128.8,66.4z"/>
</g>
<g id="apple_green">
	<path class="st1" d="M221,278c-35.5,41.8-61.1-4.4-88.4,11.3C82,318.5,39.6,252,23.3,204.5C-11.5,103.6,45.1,70.3,45.1,70.3
		c42.6-29.6,91.1,0,91.1,0s24.6-10.9,53.7-12c0.7,0,1.3,0,2,0c29.1-1.1,54.1-1.1,69.7,41.2C273.1,130.6,269.5,221,221,278z"/>
</g>
<g id="light_spot">
	<ellipse class="st2" cx="221" cy="115" rx="13" ry="20"/>
</g>
</svg>
