<?xml version="1.0" encoding="utf-8"?>
<!-- Generator: Adobe Illustrator 22.0.1, SVG Export Plug-In . SVG Version: 6.00 Build 0)  -->
<svg id="banana" version="1.1" xmlns="http://www.w3.org/2000/svg" xmlns:xlink="http://www.w3.org/1999/xlink" x="0px" y="0px"
	 viewBox="0 0 149.2 327" style="enable-background:new 0 0 149.2 327;" xml:space="preserve">
<style type="text/css">
	.st0{fill:#FFF48B;}
	.st1{fill:#6D6A51;}

	#banana:hover .st0{ fill: #f7eea3; }
	#banana:hover .st1{ fill: #ada883; }

</style>
<g id="banana_yellow">
	<path class="st0" d="M23.5,18.3l10.7,14.4c0,0-9.2,10.9-9.2,30.4c0,13.3,5,26.1,13.4,36.4c10,12.2,26.5,37.6,26.4,72.8
		c-0.1,21.1-6.9,41.6-18.8,59C33.7,249,4.2,277.3,8.4,300.1c2.2,12,12.3,17.6,21.8,19.2c37.3,6.7,93.7-54,108.2-111.3
		c10.4-37.6,5.9-97.3-31.4-148.7c-0.9-1.2-1.8-2.3-2.7-3.4l-5.6-6.5C88,36.8,73,28.5,56.7,26.6c-3.6-0.4-7.3-0.5-11.1-0.3l-13.2-13
		L23.5,18.3z"/>
</g>
<g id="brown_top">
	<polygon class="st1" points="23.5,18.3 32.3,13.3 23.5,4 16.2,8.2 	"/>
</g>
<g id="brown_bottom">
	<path class="st1" d="M11,307.2l-0.8,9.2l8.8,5.6l8.6-3.3C27.5,318.8,16.5,316.7,11,307.2z"/>
</g>
</svg>
