<?xml version="1.0" encoding="utf-8"?>
<!-- Generator: Adobe Illustrator 22.0.1, SVG Export Plug-In . SVG Version: 6.00 Build 0)  -->
<svg id="blueberry" version="1.1" xmlns="http://www.w3.org/2000/svg" xmlns:xlink="http://www.w3.org/1999/xlink" x="0px" y="0px"
	 viewBox="0 0 179.3 141.7" style="enable-background:new 0 0 179.3 141.7;" xml:space="preserve">
<style type="text/css">
	.st0{fill:#7F98CE;}
	.st1{fill:#9FB4D8;}

	#blueberry:hover .st0{ fill: #a4bff9; }
	#blueberry:hover .st1{ fill: #c2d7f9; }

</style>
<g id="blueberry1">
	<path class="st0" d="M29.6,27.5c0,0-44.5,42-11.1,81.4c5.8,6.8,13,12.2,21,16.1c17.9,8.8,57.5,22.9,97.2,1.4
		c10.6-5.7,19.6-14.1,25.5-24.6c7.5-13.3,12.3-33.3-2.1-57.6c-6.8-11.5-17-20.9-29.3-26.1c-4-1.7-7.9-2.8-10.9-2.6L121.6,3
		l-14.8,11.8L102.1,3l-9.4,10.9L81.1,3l-6.5,12.2L61.6,3l-5,14.8L43.1,5.2l-2.2,15.5C41.4,20.4,33.7,23.7,29.6,27.5z"/>
</g>
<g id="light_spot">
	<ellipse class="st1" cx="123.9" cy="42.4" rx="11.4" ry="10.2"/>
</g>
</svg>
