<?xml version="1.0" encoding="utf-8"?>
<!-- Generator: Adobe Illustrator 22.0.1, SVG Export Plug-In . SVG Version: 6.00 Build 0)  -->
<svg version="1.1" xmlns="http://www.w3.org/2000/svg" xmlns:xlink="http://www.w3.org/1999/xlink" x="0px" y="0px"
	 viewBox="0 0 207.7 204.8" style="enable-background:new 0 0 207.7 204.8;" xml:space="preserve">
<style type="text/css">
	.st0{fill:#9FD07E;}
	.st1{fill:#CEBB7E;}
	.st2{fill:#EBF3D5;}
	.st3{fill:#3D3B36;}
</style>
<g id="kiwi_green">
	<path class="st0" d="M183.5,18.1c1,18.6-31.2,40.9-80.1,54.7S11,84.5,6.4,68.1s31.2-40.9,80.1-54.7S182.6,1,183.5,18.1z"/>
</g>
<g id="kiwi_brown">
	<path class="st1" d="M6.4,67.1C5.5,60,22.8,214.7,118.8,199c0,0,131.1-7,63.5-185c0,0,12.1,31.9-78.9,57.8
		C103.3,71.8,20,96.1,6.4,67.1"/>
</g>
<g id="kiwi_light_green">
	<ellipse transform="matrix(0.9624 -0.2718 0.2718 0.9624 -8.1298 27.4238)" class="st2" cx="94.9" cy="43.1" rx="34.9" ry="11.7"/>
</g>
<g id="black_seeds">
	<path class="st3" d="M58.6,51.8c0,0-9.7,5.3-10.7,1.6C47.9,53.4,47.5,49.7,58.6,51.8z"/>
	<path class="st3" d="M128.8,38.9c0,0,11-0.9,10.4,2.9C139.2,41.8,138.1,45.3,128.8,38.9z"/>
	<path class="st3" d="M69.4,58.3c0,0,0.2,11-3.6,10.2C65.8,68.5,62.4,67.1,69.4,58.3z"/>
	<path class="st3" d="M116.5,26.9c0,0,0.1-11,3.8-10.1C120.3,16.7,123.7,18.2,116.5,26.9z"/>
	<path class="st3" d="M100.2,28c0,0-3.1-10.6,0.7-10.8C101,17.2,104.6,17.6,100.2,28z"/>
	<path class="st3" d="M88.6,58.1c0,0,4.7,10,0.9,10.8C89.5,68.9,85.8,69.1,88.6,58.1z"/>
	<path class="st3" d="M115.6,48.4c0,0,8.7,6.8,5.7,9.2C121.3,57.6,118.1,59.4,115.6,48.4z"/>
	<path class="st3" d="M129.7,32.5c0,0,9.3-5.9,10.6-2.3C140.3,30.2,140.9,33.8,129.7,32.5z"/>
	<path class="st3" d="M60.7,45.1c0,0-11-0.7-9.9-4.4C50.8,40.7,52.4,37.4,60.7,45.1z"/>
	<path class="st3" d="M107,52.4c0,0,8.5,7,5.5,9.4C112.5,61.8,109.2,63.5,107,52.4z"/>
	<path class="st3" d="M78.2,59.3c0,0,3.7,10.4-0.1,10.8C78.1,70.1,74.4,69.9,78.2,59.3z"/>
	<path class="st3" d="M108.4,27c0,0-1.3-10.9,2.6-10.5C111,16.5,114.5,17.5,108.4,27z"/>
	<path class="st3" d="M125,28.2c0,0,3.9-10.3,7.1-8.2C132.2,20.1,134.8,22.6,125,28.2z"/>
	<path class="st3" d="M91.9,30.4c0,0-5-9.8-1.3-10.8C90.6,19.6,94.2,19.4,91.9,30.4z"/>
	<path class="st3" d="M123.5,44.8c0,0,10.4,3.5,8.4,6.8C131.9,51.6,129.5,54.3,123.5,44.8z"/>
	<path class="st3" d="M61,55.2c0,0-3.4,10.5-6.8,8.5C54.2,63.7,51.5,61.2,61,55.2z"/>
	<path class="st3" d="M98.4,56.2c0,0,6.5,8.9,2.9,10.4C101.4,66.7,97.8,67.5,98.4,56.2z"/>
	<path class="st3" d="M83.1,33.3c0,0-5.8-9.4-2.1-10.6C80.9,22.7,84.5,22.1,83.1,33.3z"/>
	<path class="st3" d="M73.9,36.9c0,0-6.9-8.6-3.4-10.3C70.5,26.6,74.1,25.6,73.9,36.9z"/>
	<path class="st3" d="M67,41c0,0-9.4-5.7-6.7-8.5C60.3,32.5,63.2,30.4,67,41z"/>
</g>
</svg>
