<?xml version="1.0" encoding="utf-8"?>
<!-- Generator: Adobe Illustrator 22.0.1, SVG Export Plug-In . SVG Version: 6.00 Build 0)  -->
<svg version="1.1" xmlns="http://www.w3.org/2000/svg" xmlns:xlink="http://www.w3.org/1999/xlink" x="0px" y="0px"
	 viewBox="0 0 236.5 352.9" style="enable-background:new 0 0 236.5 352.9;" xml:space="preserve">
<style type="text/css">
	.st0{fill:#7F746A;}
	.st1{fill:#DDE787;}
	.st2{fill:#ECF0B8;}
</style>
<g id="stem">
	<path class="st0" d="M125.4,32.2c0,0,10.3-12.2,3.7-28.2h9.7c0,0,7.6,13.1-2,29.9l-6.6,5.5l-4.7-4.1V32.2z"/>
</g>
<g id="pear_body">
	<path class="st1" d="M159.9,42.8c44.6,68.3,20.5,109.8,20.5,109.8c41.8,54.9,49.4,95.8,45,124.2c-4.3,27.9-24.3,50.9-51.2,59.6
		C96.5,361.8,50.6,329,40.4,319.7l-9.7-8c-60.2-74.9,29.6-161.1,29.6-161.1c-7.8-48.6,23.2-91.3,36.9-107.3
		c4.5-5.3,10.6-8.9,17.3-10.2c5.8-1.1,12.8-1.5,18.5,1.4C133.1,34.4,149.4,30.3,159.9,42.8"/>
</g>
<g id="light_spot">
	<ellipse transform="matrix(0.9563 -0.2924 0.2924 0.9563 -17.8628 48.4912)" class="st2" cx="153.3" cy="84" rx="11.5" ry="17.7"/>
	
		<ellipse transform="matrix(0.9563 -0.2924 0.2924 0.9563 -51.1091 62.7275)" class="st2" cx="184.3" cy="202.3" rx="11.5" ry="17.7"/>
</g>
</svg>
