<?xml version="1.0" encoding="utf-8"?>
<!-- Generator: Adobe Illustrator 22.0.1, SVG Export Plug-In . SVG Version: 6.00 Build 0)  -->
<svg version="1.1" xmlns="http://www.w3.org/2000/svg" xmlns:xlink="http://www.w3.org/1999/xlink" x="0px" y="0px"
	 viewBox="0 0 205.9 250.8" style="enable-background:new 0 0 205.9 250.8;" xml:space="preserve">
<style type="text/css">
	.st0{fill:#F58B8C;}
	.st1{fill:#FEFBDA;}
	.st2{fill:#F8B4B4;}
	.st3{fill:#BADA84;}
</style>
<g id="strawberry_base">
	<path class="st0" d="M33.2,54.3c0,0,69.9-28,139.9,0c0,0,60.8,10.8-34.3,167.1c0,0-23.8,46.9-55.9,0
		C82.8,221.4-25.5,79.5,33.2,54.3z"/>
</g>
<g id="seeds">
	<path class="st1" d="M67.1,180.1c0,0-4.9-9.4-2.2-13.4c0,0,2-3.1,4.1,0C69,166.7,72,169.9,67.1,180.1z"/>
	<path class="st1" d="M154.1,178.7c0,0-4.9-9.4-2.2-13.4c0,0,2-3.1,4.1,0C155.9,165.3,159,168.5,154.1,178.7z"/>
	<path class="st1" d="M128.2,179.4c0,0-4.9-9.4-2.2-13.4c0,0,2-3.1,4.1,0C130.1,166,133.1,169.2,128.2,179.4z"/>
	<path class="st1" d="M111.4,230.5c0,0-4.9-9.4-2.2-13.4c0,0,2-3.1,4.1,0C113.3,217.2,116.3,220.3,111.4,230.5z"/>
	<path class="st1" d="M96.1,212.4c0,0-4.9-9.4-2.2-13.4c0,0,2-3.1,4.1,0C98,199.1,101,202.2,96.1,212.4z"/>
	<path class="st1" d="M124.4,211.7c0,0-4.9-9.4-2.2-13.4c0,0,2-3.1,4.1,0C126.3,198.4,129.3,201.5,124.4,211.7z"/>
	<path class="st1" d="M142.9,195.6c0,0-4.9-9.4-2.2-13.4c0,0,2-3.1,4.1,0C144.7,182.2,147.8,185.3,142.9,195.6z"/>
	<path class="st1" d="M80.9,198.4c0,0-4.9-9.4-2.2-13.4c0,0,2-3.1,4.1,0C82.7,185,85.8,188.1,80.9,198.4z"/>
	<path class="st1" d="M111.4,195.9c0,0-4.9-9.4-2.2-13.4c0,0,2-3.1,4.1,0C113.3,182.5,116.3,185.6,111.4,195.9z"/>
	<path class="st1" d="M27.7,84.4c0,0-4.9-9.4-2.2-13.4c0,0,2-3.1,4.1,0C29.6,71,32.6,74.1,27.7,84.4z"/>
	<path class="st1" d="M94.6,179.4c0,0-4.9-9.4-2.2-13.4c0,0,2-3.1,4.1,0C96.5,166,99.5,169.2,94.6,179.4z"/>
	<path class="st1" d="M76.4,69.6c0,0-4.9-9.4-2.2-13.4c0,0,2-3.1,4.1,0C78.3,56.2,81.3,59.4,76.4,69.6z"/>
	<path class="st1" d="M51.8,77c0,0-4.9-9.4-2.2-13.4c0,0,2-3.1,4.1,0C53.7,63.6,56.7,66.7,51.8,77z"/>
	<path class="st1" d="M57.7,117c0,0-4.9-9.4-2.2-13.4c0,0,2-3.1,4.1,0C59.5,103.6,62.6,106.7,57.7,117z"/>
	<path class="st1" d="M33.5,121.8c0,0-4.9-9.4-2.2-13.4c0,0,2-3.1,4.1,0C35.4,108.5,38.4,111.6,33.5,121.8z"/>
	<path class="st1" d="M116.4,88.6c0,0-4.9-9.4-2.2-13.4c0,0,2-3.1,4.1,0C118.3,75.2,121.3,78.3,116.4,88.6z"/>
	<path class="st1" d="M91,88.6c0,0-4.9-9.4-2.2-13.4c0,0,2-3.1,4.1,0C92.9,75.2,95.9,78.3,91,88.6z"/>
	<path class="st1" d="M67.1,93.8c0,0-4.9-9.4-2.2-13.4c0,0,2-3.1,4.1,0C69,80.4,72,83.5,67.1,93.8z"/>
	<path class="st1" d="M42.9,99.1c0,0-4.9-9.4-2.2-13.4c0,0,2-3.1,4.1,0C44.8,85.8,47.8,88.9,42.9,99.1z"/>
	<path class="st1" d="M79.3,156.8c0,0-4.9-9.4-2.2-13.4c0,0,2-3.1,4.1,0C81.2,143.5,84.3,146.6,79.3,156.8z"/>
	<path class="st1" d="M177.3,84.4c0,0-4.9-9.4-2.2-13.4c0,0,2-3.1,4.1,0C179.2,71,182.2,74.1,177.3,84.4z"/>
	<path class="st1" d="M127.3,69.6c0,0-4.9-9.4-2.2-13.4c0,0,2-3.1,4.1,0C129.2,56.2,132.3,59.4,127.3,69.6z"/>
	<path class="st1" d="M101.1,67.2c0,0-4.9-9.4-2.2-13.4c0,0,2-3.1,4.1,0C103,53.8,106,57,101.1,67.2z"/>
	<path class="st1" d="M57.7,156.8c0,0-4.9-9.4-2.2-13.4c0,0,2-3.1,4.1,0C59.5,143.5,62.6,146.6,57.7,156.8z"/>
	<path class="st1" d="M159.9,132c0,0-4.9-9.4-2.2-13.4c0,0,2-3.1,4.1,0C161.8,118.7,164.8,121.8,159.9,132z"/>
	<path class="st1" d="M151,111.7c0,0-4.9-9.4-2.2-13.4c0,0,2-3.1,4.1,0C152.9,98.3,155.9,101.4,151,111.7z"/>
	<path class="st1" d="M113.6,130.3c0,0-4.9-9.4-2.2-13.4c0,0,2-3.1,4.1,0C115.5,116.9,118.5,120,113.6,130.3z"/>
	<path class="st1" d="M94.6,129.6c0,0-4.9-9.4-2.2-13.4c0,0,2-3.1,4.1,0C96.5,116.2,99.5,119.3,94.6,129.6z"/>
	<path class="st1" d="M70,136.9c0,0-4.9-9.4-2.2-13.4c0,0,2-3.1,4.1,0C71.9,123.6,74.9,126.7,70,136.9z"/>
	<path class="st1" d="M45.8,139.4c0,0-4.9-9.4-2.2-13.4c0,0,2-3.1,4.1,0C47.7,126,50.7,129.2,45.8,139.4z"/>
	<path class="st1" d="M169.1,111c0,0-4.9-9.4-2.2-13.4c0,0,2-3.1,4.1,0C171,97.6,174,100.7,169.1,111z"/>
	<path class="st1" d="M137,88.6c0,0-4.9-9.4-2.2-13.4c0,0,2-3.1,4.1,0C138.9,75.2,141.9,78.3,137,88.6z"/>
	<path class="st1" d="M104.5,109.6c0,0-4.9-9.4-2.2-13.4c0,0,2-3.1,4.1,0C106.3,96.2,109.4,99.3,104.5,109.6z"/>
	<path class="st1" d="M80.9,111c0,0-4.9-9.4-2.2-13.4c0,0,2-3.1,4.1,0C82.7,97.6,85.8,100.7,80.9,111z"/>
	<path class="st1" d="M99,156.8c0,0-4.9-9.4-2.2-13.4c0,0,2-3.1,4.1,0C100.9,143.5,103.9,146.6,99,156.8z"/>
	<path class="st1" d="M119.2,155.4c0,0-4.9-9.4-2.2-13.4c0,0,2-3.1,4.1,0C121.1,142.1,124.1,145.2,119.2,155.4z"/>
	<path class="st1" d="M142.3,154.2c0,0-4.9-9.4-2.2-13.4c0,0,2-3.1,4.1,0C144.2,140.8,147.2,143.9,142.3,154.2z"/>
	<path class="st1" d="M166.2,154.2c0,0-4.9-9.4-2.2-13.4c0,0,2-3.1,4.1,0C168.1,140.8,171.1,143.9,166.2,154.2z"/>
</g>
<g id="light_circle">
	<ellipse class="st2" cx="132.1" cy="110.3" rx="13.6" ry="19.2"/>
</g>
<g id="leaf">
	<path class="st3" d="M23.8,12.6c0,0-20.8,15.6-16.1,74.4C7.7,87,31,70,46.9,32.2c5.9-13.9-9.3-27.4-22.5-20
		C24.2,12.4,24,12.5,23.8,12.6z"/>
	<path class="st3" d="M92.3,10.3c0,0-15.9,20.6,4.3,76c0,0,17.9-22.5,23.2-63.2c1.9-15-16.3-23.9-27-13.2
		C92.6,10,92.4,10.2,92.3,10.3z"/>
	<path class="st3" d="M112.5,11.9c0,0-12.8,22.7,15.2,74.6c0,0,14.5-24.9,13.8-65.9c-0.2-15.1-19.6-21.3-28.6-9.2
		C112.8,11.6,112.7,11.7,112.5,11.9z"/>
	<path class="st3" d="M68.6,11.3c0,0-15.2,21.2,7,75.8c0,0,17.1-23.1,20.9-64C97.9,8.1,79.4-0.2,69,10.8
		C68.9,11,68.8,11.2,68.6,11.3z"/>
	<path class="st3" d="M137,14.2c0,0-9.9,24.4,25.5,71.7c0,0,11.3-26.8,5.1-67.4c-2.3-15-22.8-18.2-30.4-4.8
		C137.2,13.9,137.1,14,137,14.2z"/>
	<path class="st3" d="M47.5,11c0,0-19.4,17.4-9.7,75.5c0,0,21.7-18.9,34.3-57.9c4.6-14.4-11.7-26.5-24.1-18
		C47.9,10.7,47.7,10.9,47.5,11z"/>
	<path class="st3" d="M181.1,11.2c0,0,20.8,15.6,16.1,74.4c0,0-23.3-16.9-39.2-54.7c-5.9-13.9,9.3-27.4,22.5-20
		C180.7,10.9,180.9,11.1,181.1,11.2z"/>
</g>
</svg>
