<?xml version="1.0" encoding="utf-8"?>
<!-- Generator: Adobe Illustrator 22.0.1, SVG Export Plug-In . SVG Version: 6.00 Build 0)  -->
<svg version="1.1" xmlns="http://www.w3.org/2000/svg" xmlns:xlink="http://www.w3.org/1999/xlink" x="0px" y="0px"
	 viewBox="0 0 302.5 249.9" style="enable-background:new 0 0 302.5 249.9;" xml:space="preserve">
<style type="text/css">
	.st0{fill:#99D09A;}
	.st1{fill:#F6A4C2;}
	.st2{fill:#373A38;}
	.st3{fill:#FBDCE9;}
	.st4{fill:#D0E7C3;}
</style>
<g id="watermelon_green">
	<path class="st0" d="M7.2,87.2c0,0,13.5,166.2,146.8,157.3c0,0,181.2-2.3,131.9-209.4"/>
</g>
<g id="watermelon_pink">
	<ellipse transform="matrix(0.983 -0.1836 0.1836 0.983 -8.7448 27.9507)" class="st1" cx="146.6" cy="61.2" rx="141.8" ry="43.7"/>
</g>
<g id="watermelon_seeds">
	<path class="st2" d="M33.4,71c0,0,2.2,13.5-1.8,12.8C31.5,83.8,27.4,83.9,33.4,71z"/>
	<path class="st2" d="M111.6,54.8c0,0,3,13.3-1.1,12.9C110.5,67.6,106.4,67.9,111.6,54.8z"/>
	<path class="st2" d="M233.2,64.2c0,0,9.5,9.8,5.8,11.6C239,75.8,235.6,78.2,233.2,64.2z"/>
	<path class="st2" d="M194.4,65c0,0,8.6,10.6,4.7,12C199.1,77,195.5,79.1,194.4,65z"/>
	<path class="st2" d="M167,83.8c0,0,7.1,11.7,3.1,12.6C170.1,96.3,166.2,97.9,167,83.8z"/>
	<path class="st2" d="M138.5,70c0,0,3.3,13.2-0.8,12.9C137.7,82.9,133.5,83.3,138.5,70z"/>
	<path class="st2" d="M103.5,90c0,0,3.7,13.1-0.4,12.9C103.1,102.9,99,103.4,103.5,90z"/>
	<path class="st2" d="M81.8,71c0,0,2.2,13.5-1.8,12.8C80,83.8,75.9,83.9,81.8,71z"/>
	<path class="st2" d="M53.4,90c0,0,2.2,13.5-1.8,12.8C51.6,102.8,47.4,102.9,53.4,90z"/>
	<path class="st2" d="M181.4,20.5c0,0,7.3,11.6,3.3,12.5C184.6,33,180.8,34.7,181.4,20.5z"/>
	<path class="st2" d="M136.1,30.8c0,0,4.1,13,0,12.9C136.1,43.7,132,44.3,136.1,30.8z"/>
	<path class="st2" d="M89.9,40.3c0,0,2.2,13.5-1.8,12.8C88.1,53.2,83.9,53.2,89.9,40.3z"/>
	<path class="st2" d="M227.5,24.8c0,0,8.6,10.6,4.7,12C232.2,36.8,228.6,38.9,227.5,24.8z"/>
	<path class="st2" d="M262.1,35.4c0,0,7.8,11.2,3.9,12.3C266,47.8,262.2,49.6,262.1,35.4z"/>
	<path class="st2" d="M155.5,48.4c0,0,5.8,12.3,1.7,12.8C157.2,61.2,153.2,62.4,155.5,48.4z"/>
	<path class="st2" d="M59.7,58.2c0,0,2.2,13.5-1.8,12.8C57.8,71,53.7,71.1,59.7,58.2z"/>
</g>
<g id="light_spot">
	<ellipse transform="matrix(0.983 -0.1836 0.1836 0.983 -5.2466 36.8444)" class="st3" cx="196.4" cy="46.8" rx="24.4" ry="7.5"/>
</g>
<g id="light_green">
	<path class="st4" d="M262.3,97.6c-0.8-2.3-1.2-4.6-1.5-7c-0.7-7-1.1-17.7,5.8,3.4c0,0,9,26.4,5.8,42.8c-0.7,3.7-0.3,7.6,1.3,11
		c0.3,0.7,0.7,1.4,1.2,2c2.4,3.4,2.6,7.9,0.2,11.3c-1.2,1.7-2.6,2.3-3.7-0.5c-0.8-1.9-1.7-3.6-2.9-5.3c-1.8-2.4-4.2-6.8-4.2-12.7
		c0-0.6,0.1-1.2,0.2-1.8C265.2,136.4,268.4,115.5,262.3,97.6z"/>
	<path class="st4" d="M164.1,144.1c-0.9-3.5-1.4-7.1-1.8-10.7c-1-10.5-2-26.5,5.8,5.8c0,0,10.1,40.5,7.9,64.4
		c-0.5,5.4,0.1,11.2,1.9,16.5c0.4,1.1,8.2,18.7,8.6,19.7l-5.5,1.2c-2.7,0.8-4.5-1.4-4.7-2.3c-1-2.8-1.9-5.6-3.1-8.2
		c-1.9-3.9-4.4-10.7-4.8-19.5c0-0.9,0-1.8,0.1-2.6C168.9,202.1,170.9,171.5,164.1,144.1z"/>
	<path class="st4" d="M57.9,135.6c0.4-2.3,0.6-4.6,0.6-6.9c0.1-6.8-0.1-17.1-3.4,4c0,0-4.4,26.5-1.7,41.7c0.6,3.4,0.5,7.2-0.3,10.7
		c-0.2,0.7-4.3,12.4-4.5,13l2.2,2.8l1.8,2.2c0.5-1.9,3.4-9.8,4.1-11.5c1-2.6,2.3-7.1,2-12.7c0-0.6-0.1-1.1-0.2-1.7
		C57.8,173.1,55,153.6,57.9,135.6z"/>
	<path class="st4" d="M113.8,185.7c0.6-1.9,0.8-3.8,0.5-5.7c-0.7-5.6-2.6-14.3-7.9,2.9c0,0-7.3,21.5,1.4,34.6c2,2.9,2.3,6.1,0.6,8.9
		c-0.3,0.6-9.2,9.9-9.7,10.4l5.7,2l6,1.9c0.9-1.5,6.3-7.1,7.7-8.4c2.1-2,4.7-5.6,3.4-10.3c-0.1-0.5-0.4-1-0.7-1.4
		C118.6,216.9,108.8,200.3,113.8,185.7z"/>
	<path class="st4" d="M113.4,139.7c-2.2-7.5-3.1-16.6-2.4-19.5c0.4-1.6,1.5-0.4,2.5,2.5c3.9,11.4,15.5,46.2,9,36.1
		C119.9,154.8,115.9,148.2,113.4,139.7z"/>
	<path class="st4" d="M215.2,158.3c-4.5-15.3-7.4-33.7-6.6-39.5c0.4-3.2,2.3-0.8,4.3,5.2c7.7,23.1,31,94.2,19.3,73.4
		C227.5,189.1,220.3,175.5,215.2,158.3z"/>
</g>
</svg>
